<?xml version="1.0" encoding="us-ascii" standalone="no"?><svg xmlns="http://www.w3.org/2000/svg" xmlns:xlink="http://www.w3.org/1999/xlink" contentStyleType="text/css" height="1074px" preserveAspectRatio="none" style="width:2375px;height:1074px;background:#FFFFFF;" version="1.1" viewBox="0 0 2375 1074" width="2375px" zoomAndPan="magnify"><defs/><g><!--cluster Open-Know-Where Initiative Distributed Resources Data Schema--><g id="cluster_Open-Know-Where Initiative Distributed Resources Data Schema"><path d="M8.5,6 L531.5,6 A3.75,3.75 0 0 1 534,8.5 L541,28.2969 L2365.5,28.2969 A2.5,2.5 0 0 1 2368,30.7969 L2368,1064.5 A2.5,2.5 0 0 1 2365.5,1067 L8.5,1067 A2.5,2.5 0 0 1 6,1064.5 L6,8.5 A2.5,2.5 0 0 1 8.5,6 " fill="none" style="stroke:#000000;stroke-width:1.5;"/><line style="stroke:#000000;stroke-width:1.5;" x1="6" x2="541" y1="28.2969" y2="28.2969"/><text fill="#000000" font-family="sans-serif" font-size="14" font-weight="bold" lengthAdjust="spacing" textLength="522" x="10" y="20.9951">Open-Know-Where Initiative Distributed Resources Data Schema</text></g><!--class Address--><g id="elem_Address"><rect codeLine="2" fill="#F1F1F1" height="194.6719" id="Address" rx="2.5" ry="2.5" style="stroke:#181818;stroke-width:0.5;" width="285" x="1293.5" y="41"/><ellipse cx="1403.25" cy="57" fill="#ADD1B2" rx="11" ry="11" style="stroke:#181818;stroke-width:1.0;"/><path d="M1405.5938,52.6719 C1404.6563,52.2344 1404.0625,52.0938 1403.1875,52.0938 C1400.5625,52.0938 1398.5625,54.1719 1398.5625,56.8906 L1398.5625,58.0156 C1398.5625,60.5938 1400.6719,62.4844 1403.5625,62.4844 C1404.7813,62.4844 1405.9375,62.1875 1406.6875,61.6406 C1407.2656,61.2344 1407.5938,60.7813 1407.5938,60.3906 C1407.5938,59.9375 1407.2031,59.5469 1406.7344,59.5469 C1406.5156,59.5469 1406.3125,59.625 1406.125,59.8125 C1405.6719,60.2969 1405.6719,60.2969 1405.4844,60.3906 C1405.0625,60.6563 1404.375,60.7813 1403.6094,60.7813 C1401.5625,60.7813 1400.2656,59.6875 1400.2656,57.9844 L1400.2656,56.8906 C1400.2656,55.1094 1401.5156,53.7969 1403.25,53.7969 C1403.8281,53.7969 1404.4375,53.9531 1404.9063,54.2031 C1405.3906,54.4844 1405.5625,54.7031 1405.6563,55.1094 C1405.7188,55.5156 1405.75,55.6406 1405.8906,55.7656 C1406.0313,55.9063 1406.2656,56.0156 1406.4844,56.0156 C1406.75,56.0156 1407.0156,55.875 1407.1875,55.6563 C1407.2969,55.5 1407.3281,55.3125 1407.3281,54.8906 L1407.3281,53.4688 C1407.3281,53.0313 1407.3125,52.9063 1407.2188,52.75 C1407.0625,52.4844 1406.7813,52.3438 1406.4844,52.3438 C1406.1875,52.3438 1405.9844,52.4375 1405.7656,52.75 L1405.5938,52.6719 Z " fill="#000000"/><text fill="#000000" font-family="sans-serif" font-size="14" lengthAdjust="spacing" textLength="57" x="1423.75" y="61.8467">Address</text><line style="stroke:#181818;stroke-width:0.5;" x1="1294.5" x2="1577.5" y1="73" y2="73"/><ellipse cx="1304.5" cy="86.6484" fill="none" rx="3" ry="3" style="stroke:#038048;stroke-width:1.0;"/><text fill="#000000" font-family="sans-serif" font-size="14" lengthAdjust="spacing" textLength="259" x="1313.5" y="89.9951">address_id: int [unique, primary key]</text><ellipse cx="1304.5" cy="102.9453" fill="none" rx="3" ry="3" style="stroke:#038048;stroke-width:1.0;"/><text fill="#000000" font-family="sans-serif" font-size="14" lengthAdjust="spacing" textLength="96" x="1313.5" y="106.292">street: string</text><ellipse cx="1304.5" cy="119.2422" fill="none" rx="3" ry="3" style="stroke:#038048;stroke-width:1.0;"/><text fill="#000000" font-family="sans-serif" font-size="14" lengthAdjust="spacing" textLength="107" x="1313.5" y="122.5889">number: string</text><ellipse cx="1304.5" cy="135.5391" fill="none" rx="3" ry="3" style="stroke:#038048;stroke-width:1.0;"/><text fill="#000000" font-family="sans-serif" font-size="14" lengthAdjust="spacing" textLength="103" x="1313.5" y="138.8857">locality: string</text><ellipse cx="1304.5" cy="151.8359" fill="none" rx="3" ry="3" style="stroke:#038048;stroke-width:1.0;"/><text fill="#000000" font-family="sans-serif" font-size="14" lengthAdjust="spacing" textLength="97" x="1313.5" y="155.1826">region: string</text><ellipse cx="1304.5" cy="168.1328" fill="none" rx="3" ry="3" style="stroke:#038048;stroke-width:1.0;"/><text fill="#000000" font-family="sans-serif" font-size="14" lengthAdjust="spacing" textLength="130" x="1313.5" y="171.4795">postcode: integer</text><ellipse cx="1304.5" cy="184.4297" fill="none" rx="3" ry="3" style="stroke:#038048;stroke-width:1.0;"/><text fill="#000000" font-family="sans-serif" font-size="14" lengthAdjust="spacing" textLength="106" x="1313.5" y="187.7764">country: string</text><ellipse cx="1304.5" cy="200.7266" fill="none" rx="3" ry="3" style="stroke:#038048;stroke-width:1.0;"/><text fill="#000000" font-family="sans-serif" font-size="14" lengthAdjust="spacing" textLength="99" x="1313.5" y="204.0732">latitude: float</text><ellipse cx="1304.5" cy="217.0234" fill="none" rx="3" ry="3" style="stroke:#038048;stroke-width:1.0;"/><text fill="#000000" font-family="sans-serif" font-size="14" lengthAdjust="spacing" textLength="111" x="1313.5" y="220.3701">longitude: float</text><line style="stroke:#181818;stroke-width:0.5;" x1="1294.5" x2="1577.5" y1="227.6719" y2="227.6719"/></g><!--class Contact--><g id="elem_Contact"><rect codeLine="14" fill="#F1F1F1" height="113.1875" id="Contact" rx="2.5" ry="2.5" style="stroke:#181818;stroke-width:0.5;" width="286" x="1293" y="386.5"/><ellipse cx="1402.75" cy="402.5" fill="#ADD1B2" rx="11" ry="11" style="stroke:#181818;stroke-width:1.0;"/><path d="M1405.0938,398.1719 C1404.1563,397.7344 1403.5625,397.5938 1402.6875,397.5938 C1400.0625,397.5938 1398.0625,399.6719 1398.0625,402.3906 L1398.0625,403.5156 C1398.0625,406.0938 1400.1719,407.9844 1403.0625,407.9844 C1404.2813,407.9844 1405.4375,407.6875 1406.1875,407.1406 C1406.7656,406.7344 1407.0938,406.2813 1407.0938,405.8906 C1407.0938,405.4375 1406.7031,405.0469 1406.2344,405.0469 C1406.0156,405.0469 1405.8125,405.125 1405.625,405.3125 C1405.1719,405.7969 1405.1719,405.7969 1404.9844,405.8906 C1404.5625,406.1563 1403.875,406.2813 1403.1094,406.2813 C1401.0625,406.2813 1399.7656,405.1875 1399.7656,403.4844 L1399.7656,402.3906 C1399.7656,400.6094 1401.0156,399.2969 1402.75,399.2969 C1403.3281,399.2969 1403.9375,399.4531 1404.4063,399.7031 C1404.8906,399.9844 1405.0625,400.2031 1405.1563,400.6094 C1405.2188,401.0156 1405.25,401.1406 1405.3906,401.2656 C1405.5313,401.4063 1405.7656,401.5156 1405.9844,401.5156 C1406.25,401.5156 1406.5156,401.375 1406.6875,401.1563 C1406.7969,401 1406.8281,400.8125 1406.8281,400.3906 L1406.8281,398.9688 C1406.8281,398.5313 1406.8125,398.4063 1406.7188,398.25 C1406.5625,397.9844 1406.2813,397.8438 1405.9844,397.8438 C1405.6875,397.8438 1405.4844,397.9375 1405.2656,398.25 L1405.0938,398.1719 Z " fill="#000000"/><text fill="#000000" font-family="sans-serif" font-size="14" lengthAdjust="spacing" textLength="58" x="1423.25" y="407.3467">Contact</text><line style="stroke:#181818;stroke-width:0.5;" x1="1294" x2="1578" y1="418.5" y2="418.5"/><ellipse cx="1304" cy="432.1484" fill="none" rx="3" ry="3" style="stroke:#038048;stroke-width:1.0;"/><text fill="#000000" font-family="sans-serif" font-size="14" lengthAdjust="spacing" textLength="260" x="1313" y="435.4951">contact_id: int [unique, primary key]</text><ellipse cx="1304" cy="448.4453" fill="none" rx="3" ry="3" style="stroke:#038048;stroke-width:1.0;"/><text fill="#000000" font-family="sans-serif" font-size="14" lengthAdjust="spacing" textLength="91" x="1313" y="451.792">social: string</text><ellipse cx="1304" cy="464.7422" fill="none" rx="3" ry="3" style="stroke:#038048;stroke-width:1.0;"/><text fill="#000000" font-family="sans-serif" font-size="14" lengthAdjust="spacing" textLength="90" x="1313" y="468.0889">email: string</text><ellipse cx="1304" cy="481.0391" fill="none" rx="3" ry="3" style="stroke:#038048;stroke-width:1.0;"/><text fill="#000000" font-family="sans-serif" font-size="14" lengthAdjust="spacing" textLength="108" x="1313" y="484.3857">website: string</text><line style="stroke:#181818;stroke-width:0.5;" x1="1294" x2="1578" y1="491.6875" y2="491.6875"/></g><!--class DatabaseSourceMetadata--><g id="elem_DatabaseSourceMetadata"><rect codeLine="21" fill="#F1F1F1" height="259.8594" id="DatabaseSourceMetadata" rx="2.5" ry="2.5" style="stroke:#181818;stroke-width:0.5;" width="277" x="839.5" y="313"/><ellipse cx="881.5" cy="329" fill="#ADD1B2" rx="11" ry="11" style="stroke:#181818;stroke-width:1.0;"/><path d="M883.8438,324.6719 C882.9063,324.2344 882.3125,324.0938 881.4375,324.0938 C878.8125,324.0938 876.8125,326.1719 876.8125,328.8906 L876.8125,330.0156 C876.8125,332.5938 878.9219,334.4844 881.8125,334.4844 C883.0313,334.4844 884.1875,334.1875 884.9375,333.6406 C885.5156,333.2344 885.8438,332.7813 885.8438,332.3906 C885.8438,331.9375 885.4531,331.5469 884.9844,331.5469 C884.7656,331.5469 884.5625,331.625 884.375,331.8125 C883.9219,332.2969 883.9219,332.2969 883.7344,332.3906 C883.3125,332.6563 882.625,332.7813 881.8594,332.7813 C879.8125,332.7813 878.5156,331.6875 878.5156,329.9844 L878.5156,328.8906 C878.5156,327.1094 879.7656,325.7969 881.5,325.7969 C882.0781,325.7969 882.6875,325.9531 883.1563,326.2031 C883.6406,326.4844 883.8125,326.7031 883.9063,327.1094 C883.9688,327.5156 884,327.6406 884.1406,327.7656 C884.2813,327.9063 884.5156,328.0156 884.7344,328.0156 C885,328.0156 885.2656,327.875 885.4375,327.6563 C885.5469,327.5 885.5781,327.3125 885.5781,326.8906 L885.5781,325.4688 C885.5781,325.0313 885.5625,324.9063 885.4688,324.75 C885.3125,324.4844 885.0313,324.3438 884.7344,324.3438 C884.4375,324.3438 884.2344,324.4375 884.0156,324.75 L883.8438,324.6719 Z " fill="#000000"/><text fill="#000000" font-family="sans-serif" font-size="14" lengthAdjust="spacing" textLength="185" x="901.5" y="333.8467">DatabaseSourceMetadata</text><line style="stroke:#181818;stroke-width:0.5;" x1="840.5" x2="1115.5" y1="345" y2="345"/><ellipse cx="850.5" cy="358.6484" fill="none" rx="3" ry="3" style="stroke:#038048;stroke-width:1.0;"/><text fill="#000000" font-family="sans-serif" font-size="14" lengthAdjust="spacing" textLength="251" x="859.5" y="361.9951">source_id: int [unique, primary key]</text><ellipse cx="850.5" cy="374.9453" fill="none" rx="3" ry="3" style="stroke:#038048;stroke-width:1.0;"/><text fill="#000000" font-family="sans-serif" font-size="14" lengthAdjust="spacing" textLength="91" x="859.5" y="378.292">name: string</text><ellipse cx="850.5" cy="391.2422" fill="none" rx="3" ry="3" style="stroke:#038048;stroke-width:1.0;"/><text fill="#000000" font-family="sans-serif" font-size="14" lengthAdjust="spacing" textLength="133" x="859.5" y="394.5889">description: string</text><ellipse cx="850.5" cy="407.5391" fill="none" rx="3" ry="3" style="stroke:#038048;stroke-width:1.0;"/><text fill="#000000" font-family="sans-serif" font-size="14" lengthAdjust="spacing" textLength="139" x="859.5" y="410.8857">source_type: string</text><ellipse cx="850.5" cy="423.8359" fill="none" rx="3" ry="3" style="stroke:#038048;stroke-width:1.0;"/><text fill="#000000" font-family="sans-serif" font-size="14" lengthAdjust="spacing" textLength="123" x="859.5" y="427.1826">source_url: string</text><ellipse cx="850.5" cy="440.1328" fill="none" rx="3" ry="3" style="stroke:#038048;stroke-width:1.0;"/><text fill="#000000" font-family="sans-serif" font-size="14" lengthAdjust="spacing" textLength="101" x="859.5" y="443.4795">license: string</text><ellipse cx="850.5" cy="456.4297" fill="none" rx="3" ry="3" style="stroke:#038048;stroke-width:1.0;"/><text fill="#000000" font-family="sans-serif" font-size="14" lengthAdjust="spacing" textLength="103" x="859.5" y="459.7764">version: string</text><ellipse cx="850.5" cy="472.7266" fill="none" rx="3" ry="3" style="stroke:#038048;stroke-width:1.0;"/><text fill="#000000" font-family="sans-serif" font-size="14" lengthAdjust="spacing" textLength="176" x="859.5" y="476.0732">creation_date: datetime</text><ellipse cx="850.5" cy="489.0234" fill="none" rx="3" ry="3" style="stroke:#038048;stroke-width:1.0;"/><text fill="#000000" font-family="sans-serif" font-size="14" lengthAdjust="spacing" textLength="167" x="859.5" y="492.3701">update_date: datetime</text><ellipse cx="850.5" cy="505.3203" fill="none" rx="3" ry="3" style="stroke:#038048;stroke-width:1.0;"/><text fill="#000000" font-family="sans-serif" font-size="14" lengthAdjust="spacing" textLength="119" x="859.5" y="508.667">keywords: string</text><ellipse cx="850.5" cy="521.6172" fill="none" rx="3" ry="3" style="stroke:#038048;stroke-width:1.0;"/><text fill="#000000" font-family="sans-serif" font-size="14" lengthAdjust="spacing" textLength="118" x="859.5" y="524.9639">publisher: string</text><ellipse cx="850.5" cy="537.9141" fill="none" rx="3" ry="3" style="stroke:#038048;stroke-width:1.0;"/><text fill="#000000" font-family="sans-serif" font-size="14" lengthAdjust="spacing" textLength="134" x="859.5" y="541.2607">contributor: string</text><ellipse cx="850.5" cy="554.2109" fill="none" rx="3" ry="3" style="stroke:#038048;stroke-width:1.0;"/><text fill="#000000" font-family="sans-serif" font-size="14" lengthAdjust="spacing" textLength="115" x="859.5" y="557.5576">language: string</text><line style="stroke:#181818;stroke-width:0.5;" x1="840.5" x2="1115.5" y1="564.8594" y2="564.8594"/></g><!--class DistributedResource--><g id="elem_DistributedResource"><rect codeLine="37" fill="#F1F1F1" height="145.7813" id="DistributedResource" rx="2.5" ry="2.5" style="stroke:#181818;stroke-width:0.5;" width="438" x="968" y="650"/><ellipse cx="1108.75" cy="666" fill="#ADD1B2" rx="11" ry="11" style="stroke:#181818;stroke-width:1.0;"/><path d="M1111.0938,661.6719 C1110.1563,661.2344 1109.5625,661.0938 1108.6875,661.0938 C1106.0625,661.0938 1104.0625,663.1719 1104.0625,665.8906 L1104.0625,667.0156 C1104.0625,669.5938 1106.1719,671.4844 1109.0625,671.4844 C1110.2813,671.4844 1111.4375,671.1875 1112.1875,670.6406 C1112.7656,670.2344 1113.0938,669.7813 1113.0938,669.3906 C1113.0938,668.9375 1112.7031,668.5469 1112.2344,668.5469 C1112.0156,668.5469 1111.8125,668.625 1111.625,668.8125 C1111.1719,669.2969 1111.1719,669.2969 1110.9844,669.3906 C1110.5625,669.6563 1109.875,669.7813 1109.1094,669.7813 C1107.0625,669.7813 1105.7656,668.6875 1105.7656,666.9844 L1105.7656,665.8906 C1105.7656,664.1094 1107.0156,662.7969 1108.75,662.7969 C1109.3281,662.7969 1109.9375,662.9531 1110.4063,663.2031 C1110.8906,663.4844 1111.0625,663.7031 1111.1563,664.1094 C1111.2188,664.5156 1111.25,664.6406 1111.3906,664.7656 C1111.5313,664.9063 1111.7656,665.0156 1111.9844,665.0156 C1112.25,665.0156 1112.5156,664.875 1112.6875,664.6563 C1112.7969,664.5 1112.8281,664.3125 1112.8281,663.8906 L1112.8281,662.4688 C1112.8281,662.0313 1112.8125,661.9063 1112.7188,661.75 C1112.5625,661.4844 1112.2813,661.3438 1111.9844,661.3438 C1111.6875,661.3438 1111.4844,661.4375 1111.2656,661.75 L1111.0938,661.6719 Z " fill="#000000"/><text fill="#000000" font-family="sans-serif" font-size="14" lengthAdjust="spacing" textLength="148" x="1129.25" y="670.8467">DistributedResource</text><line style="stroke:#181818;stroke-width:0.5;" x1="969" x2="1405" y1="682" y2="682"/><ellipse cx="979" cy="695.6484" fill="none" rx="3" ry="3" style="stroke:#038048;stroke-width:1.0;"/><text fill="#000000" font-family="sans-serif" font-size="14" lengthAdjust="spacing" textLength="266" x="988" y="698.9951">resource_id: int [unique, primary key]</text><ellipse cx="979" cy="711.9453" fill="none" rx="3" ry="3" style="stroke:#038048;stroke-width:1.0;"/><text fill="#000000" font-family="sans-serif" font-size="14" lengthAdjust="spacing" textLength="300" x="988" y="715.292">address_id: int [ref: &gt; Address.address_id]</text><ellipse cx="979" cy="728.2422" fill="none" rx="3" ry="3" style="stroke:#038048;stroke-width:1.0;"/><text fill="#000000" font-family="sans-serif" font-size="14" lengthAdjust="spacing" textLength="303" x="988" y="731.5889">contact_id: int [ref: &gt; Contact.contact_id]</text><ellipse cx="979" cy="744.5391" fill="none" rx="3" ry="3" style="stroke:#038048;stroke-width:1.0;"/><text fill="#000000" font-family="sans-serif" font-size="14" lengthAdjust="spacing" textLength="123" x="988" y="747.8857">verification: bool</text><ellipse cx="979" cy="760.8359" fill="none" rx="3" ry="3" style="stroke:#038048;stroke-width:1.0;"/><text fill="#000000" font-family="sans-serif" font-size="14" lengthAdjust="spacing" textLength="394" x="988" y="764.1826">verificator_id: int [ref: &gt; DataVerificator.verificator_id]</text><ellipse cx="979" cy="777.1328" fill="none" rx="3" ry="3" style="stroke:#038048;stroke-width:1.0;"/><text fill="#000000" font-family="sans-serif" font-size="14" lengthAdjust="spacing" textLength="412" x="988" y="780.4795">source_id: int [ref: &gt; DatabaseSourceMetadata.source_id]</text><line style="stroke:#181818;stroke-width:0.5;" x1="969" x2="1405" y1="787.7813" y2="787.7813"/></g><!--class DataVerificator--><g id="elem_DataVerificator"><rect codeLine="46" fill="#F1F1F1" height="129.4844" id="DataVerificator" rx="2.5" ry="2.5" style="stroke:#181818;stroke-width:0.5;" width="329" x="1462.5" y="658.5"/><ellipse cx="1567.25" cy="674.5" fill="#ADD1B2" rx="11" ry="11" style="stroke:#181818;stroke-width:1.0;"/><path d="M1569.5938,670.1719 C1568.6563,669.7344 1568.0625,669.5938 1567.1875,669.5938 C1564.5625,669.5938 1562.5625,671.6719 1562.5625,674.3906 L1562.5625,675.5156 C1562.5625,678.0938 1564.6719,679.9844 1567.5625,679.9844 C1568.7813,679.9844 1569.9375,679.6875 1570.6875,679.1406 C1571.2656,678.7344 1571.5938,678.2813 1571.5938,677.8906 C1571.5938,677.4375 1571.2031,677.0469 1570.7344,677.0469 C1570.5156,677.0469 1570.3125,677.125 1570.125,677.3125 C1569.6719,677.7969 1569.6719,677.7969 1569.4844,677.8906 C1569.0625,678.1563 1568.375,678.2813 1567.6094,678.2813 C1565.5625,678.2813 1564.2656,677.1875 1564.2656,675.4844 L1564.2656,674.3906 C1564.2656,672.6094 1565.5156,671.2969 1567.25,671.2969 C1567.8281,671.2969 1568.4375,671.4531 1568.9063,671.7031 C1569.3906,671.9844 1569.5625,672.2031 1569.6563,672.6094 C1569.7188,673.0156 1569.75,673.1406 1569.8906,673.2656 C1570.0313,673.4063 1570.2656,673.5156 1570.4844,673.5156 C1570.75,673.5156 1571.0156,673.375 1571.1875,673.1563 C1571.2969,673 1571.3281,672.8125 1571.3281,672.3906 L1571.3281,670.9688 C1571.3281,670.5313 1571.3125,670.4063 1571.2188,670.25 C1571.0625,669.9844 1570.7813,669.8438 1570.4844,669.8438 C1570.1875,669.8438 1569.9844,669.9375 1569.7656,670.25 L1569.5938,670.1719 Z " fill="#000000"/><text fill="#000000" font-family="sans-serif" font-size="14" lengthAdjust="spacing" textLength="111" x="1587.75" y="679.3467">DataVerificator</text><line style="stroke:#181818;stroke-width:0.5;" x1="1463.5" x2="1790.5" y1="690.5" y2="690.5"/><ellipse cx="1473.5" cy="704.1484" fill="none" rx="3" ry="3" style="stroke:#038048;stroke-width:1.0;"/><text fill="#000000" font-family="sans-serif" font-size="14" lengthAdjust="spacing" textLength="279" x="1482.5" y="707.4951">verificator_id: int [unique, primary key]</text><ellipse cx="1473.5" cy="720.4453" fill="none" rx="3" ry="3" style="stroke:#038048;stroke-width:1.0;"/><text fill="#000000" font-family="sans-serif" font-size="14" lengthAdjust="spacing" textLength="91" x="1482.5" y="723.792">name: string</text><ellipse cx="1473.5" cy="736.7422" fill="none" rx="3" ry="3" style="stroke:#038048;stroke-width:1.0;"/><text fill="#000000" font-family="sans-serif" font-size="14" lengthAdjust="spacing" textLength="133" x="1482.5" y="740.0889">description: string</text><ellipse cx="1473.5" cy="753.0391" fill="none" rx="3" ry="3" style="stroke:#038048;stroke-width:1.0;"/><text fill="#000000" font-family="sans-serif" font-size="14" lengthAdjust="spacing" textLength="303" x="1482.5" y="756.3857">contact_id: int [ref: &gt; Contact.contact_id]</text><ellipse cx="1473.5" cy="769.3359" fill="none" rx="3" ry="3" style="stroke:#038048;stroke-width:1.0;"/><text fill="#000000" font-family="sans-serif" font-size="14" lengthAdjust="spacing" textLength="300" x="1482.5" y="772.6826">address_id: int [ref: &gt; Address.address_id]</text><line style="stroke:#181818;stroke-width:0.5;" x1="1463.5" x2="1790.5" y1="779.9844" y2="779.9844"/></g><!--class ManufacturingFacility--><g id="elem_ManufacturingFacility"><rect codeLine="54" fill="#F1F1F1" height="178.375" id="ManufacturingFacility" rx="2.5" ry="2.5" style="stroke:#181818;stroke-width:0.5;" width="438" x="22" y="873"/><ellipse cx="160.25" cy="889" fill="#ADD1B2" rx="11" ry="11" style="stroke:#181818;stroke-width:1.0;"/><path d="M162.5938,884.6719 C161.6563,884.2344 161.0625,884.0938 160.1875,884.0938 C157.5625,884.0938 155.5625,886.1719 155.5625,888.8906 L155.5625,890.0156 C155.5625,892.5938 157.6719,894.4844 160.5625,894.4844 C161.7813,894.4844 162.9375,894.1875 163.6875,893.6406 C164.2656,893.2344 164.5938,892.7813 164.5938,892.3906 C164.5938,891.9375 164.2031,891.5469 163.7344,891.5469 C163.5156,891.5469 163.3125,891.625 163.125,891.8125 C162.6719,892.2969 162.6719,892.2969 162.4844,892.3906 C162.0625,892.6563 161.375,892.7813 160.6094,892.7813 C158.5625,892.7813 157.2656,891.6875 157.2656,889.9844 L157.2656,888.8906 C157.2656,887.1094 158.5156,885.7969 160.25,885.7969 C160.8281,885.7969 161.4375,885.9531 161.9063,886.2031 C162.3906,886.4844 162.5625,886.7031 162.6563,887.1094 C162.7188,887.5156 162.75,887.6406 162.8906,887.7656 C163.0313,887.9063 163.2656,888.0156 163.4844,888.0156 C163.75,888.0156 164.0156,887.875 164.1875,887.6563 C164.2969,887.5 164.3281,887.3125 164.3281,886.8906 L164.3281,885.4688 C164.3281,885.0313 164.3125,884.9063 164.2188,884.75 C164.0625,884.4844 163.7813,884.3438 163.4844,884.3438 C163.1875,884.3438 162.9844,884.4375 162.7656,884.75 L162.5938,884.6719 Z " fill="#000000"/><text fill="#000000" font-family="sans-serif" font-size="14" lengthAdjust="spacing" textLength="153" x="180.75" y="893.8467">ManufacturingFacility</text><line style="stroke:#181818;stroke-width:0.5;" x1="23" x2="459" y1="905" y2="905"/><ellipse cx="33" cy="918.6484" fill="none" rx="3" ry="3" style="stroke:#038048;stroke-width:1.0;"/><text fill="#000000" font-family="sans-serif" font-size="14" lengthAdjust="spacing" textLength="253" x="42" y="921.9951">facility_id: int [unique, primary key]</text><ellipse cx="33" cy="934.9453" fill="none" rx="3" ry="3" style="stroke:#038048;stroke-width:1.0;"/><text fill="#000000" font-family="sans-serif" font-size="14" lengthAdjust="spacing" textLength="405" x="42" y="938.292">resource_id: int [ref: &gt; DistributedResource.resource_id]</text><ellipse cx="33" cy="951.2422" fill="none" rx="3" ry="3" style="stroke:#038048;stroke-width:1.0;"/><text fill="#000000" font-family="sans-serif" font-size="14" lengthAdjust="spacing" textLength="91" x="42" y="954.5889">name: string</text><ellipse cx="33" cy="967.5391" fill="none" rx="3" ry="3" style="stroke:#038048;stroke-width:1.0;"/><text fill="#000000" font-family="sans-serif" font-size="14" lengthAdjust="spacing" textLength="133" x="42" y="970.8857">description: string</text><ellipse cx="33" cy="983.8359" fill="none" rx="3" ry="3" style="stroke:#038048;stroke-width:1.0;"/><text fill="#000000" font-family="sans-serif" font-size="14" lengthAdjust="spacing" textLength="85" x="42" y="987.1826">type: string</text><ellipse cx="33" cy="1000.1328" fill="none" rx="3" ry="3" style="stroke:#038048;stroke-width:1.0;"/><text fill="#000000" font-family="sans-serif" font-size="14" lengthAdjust="spacing" textLength="90" x="42" y="1003.4795">capacity: int</text><ellipse cx="33" cy="1016.4297" fill="none" rx="3" ry="3" style="stroke:#038048;stroke-width:1.0;"/><text fill="#000000" font-family="sans-serif" font-size="14" lengthAdjust="spacing" textLength="134" x="42" y="1019.7764">capabilities: string</text><ellipse cx="33" cy="1032.7266" fill="none" rx="3" ry="3" style="stroke:#038048;stroke-width:1.0;"/><text fill="#000000" font-family="sans-serif" font-size="14" lengthAdjust="spacing" textLength="412" x="42" y="1036.0732">source_id: int [ref: &gt; DatabaseSourceMetadata.source_id]</text><line style="stroke:#181818;stroke-width:0.5;" x1="23" x2="459" y1="1043.375" y2="1043.375"/></g><!--class ManufacturingEquipment--><g id="elem_ManufacturingEquipment"><rect codeLine="65" fill="#F1F1F1" height="162.0781" id="ManufacturingEquipment" rx="2.5" ry="2.5" style="stroke:#181818;stroke-width:0.5;" width="438" x="495" y="881"/><ellipse cx="619.25" cy="897" fill="#ADD1B2" rx="11" ry="11" style="stroke:#181818;stroke-width:1.0;"/><path d="M621.5938,892.6719 C620.6563,892.2344 620.0625,892.0938 619.1875,892.0938 C616.5625,892.0938 614.5625,894.1719 614.5625,896.8906 L614.5625,898.0156 C614.5625,900.5938 616.6719,902.4844 619.5625,902.4844 C620.7813,902.4844 621.9375,902.1875 622.6875,901.6406 C623.2656,901.2344 623.5938,900.7813 623.5938,900.3906 C623.5938,899.9375 623.2031,899.5469 622.7344,899.5469 C622.5156,899.5469 622.3125,899.625 622.125,899.8125 C621.6719,900.2969 621.6719,900.2969 621.4844,900.3906 C621.0625,900.6563 620.375,900.7813 619.6094,900.7813 C617.5625,900.7813 616.2656,899.6875 616.2656,897.9844 L616.2656,896.8906 C616.2656,895.1094 617.5156,893.7969 619.25,893.7969 C619.8281,893.7969 620.4375,893.9531 620.9063,894.2031 C621.3906,894.4844 621.5625,894.7031 621.6563,895.1094 C621.7188,895.5156 621.75,895.6406 621.8906,895.7656 C622.0313,895.9063 622.2656,896.0156 622.4844,896.0156 C622.75,896.0156 623.0156,895.875 623.1875,895.6563 C623.2969,895.5 623.3281,895.3125 623.3281,894.8906 L623.3281,893.4688 C623.3281,893.0313 623.3125,892.9063 623.2188,892.75 C623.0625,892.4844 622.7813,892.3438 622.4844,892.3438 C622.1875,892.3438 621.9844,892.4375 621.7656,892.75 L621.5938,892.6719 Z " fill="#000000"/><text fill="#000000" font-family="sans-serif" font-size="14" lengthAdjust="spacing" textLength="181" x="639.75" y="901.8467">ManufacturingEquipment</text><line style="stroke:#181818;stroke-width:0.5;" x1="496" x2="932" y1="913" y2="913"/><ellipse cx="506" cy="926.6484" fill="none" rx="3" ry="3" style="stroke:#038048;stroke-width:1.0;"/><text fill="#000000" font-family="sans-serif" font-size="14" lengthAdjust="spacing" textLength="283" x="515" y="929.9951">equipment_id: int [unique, primary key]</text><ellipse cx="506" cy="942.9453" fill="none" rx="3" ry="3" style="stroke:#038048;stroke-width:1.0;"/><text fill="#000000" font-family="sans-serif" font-size="14" lengthAdjust="spacing" textLength="405" x="515" y="946.292">resource_id: int [ref: &gt; DistributedResource.resource_id]</text><ellipse cx="506" cy="959.2422" fill="none" rx="3" ry="3" style="stroke:#038048;stroke-width:1.0;"/><text fill="#000000" font-family="sans-serif" font-size="14" lengthAdjust="spacing" textLength="93" x="515" y="962.5889">brand: string</text><ellipse cx="506" cy="975.5391" fill="none" rx="3" ry="3" style="stroke:#038048;stroke-width:1.0;"/><text fill="#000000" font-family="sans-serif" font-size="14" lengthAdjust="spacing" textLength="96" x="515" y="978.8857">model: string</text><ellipse cx="506" cy="991.8359" fill="none" rx="3" ry="3" style="stroke:#038048;stroke-width:1.0;"/><text fill="#000000" font-family="sans-serif" font-size="14" lengthAdjust="spacing" textLength="85" x="515" y="995.1826">type: string</text><ellipse cx="506" cy="1008.1328" fill="none" rx="3" ry="3" style="stroke:#038048;stroke-width:1.0;"/><text fill="#000000" font-family="sans-serif" font-size="14" lengthAdjust="spacing" textLength="133" x="515" y="1011.4795">description: string</text><ellipse cx="506" cy="1024.4297" fill="none" rx="3" ry="3" style="stroke:#038048;stroke-width:1.0;"/><text fill="#000000" font-family="sans-serif" font-size="14" lengthAdjust="spacing" textLength="412" x="515" y="1027.7764">source_id: int [ref: &gt; DatabaseSourceMetadata.source_id]</text><line style="stroke:#181818;stroke-width:0.5;" x1="496" x2="932" y1="1035.0781" y2="1035.0781"/></g><!--class ManufacturingService--><g id="elem_ManufacturingService"><rect codeLine="75" fill="#F1F1F1" height="129.4844" id="ManufacturingService" rx="2.5" ry="2.5" style="stroke:#181818;stroke-width:0.5;" width="438" x="968" y="897.5"/><ellipse cx="1105.25" cy="913.5" fill="#ADD1B2" rx="11" ry="11" style="stroke:#181818;stroke-width:1.0;"/><path d="M1107.5938,909.1719 C1106.6563,908.7344 1106.0625,908.5938 1105.1875,908.5938 C1102.5625,908.5938 1100.5625,910.6719 1100.5625,913.3906 L1100.5625,914.5156 C1100.5625,917.0938 1102.6719,918.9844 1105.5625,918.9844 C1106.7813,918.9844 1107.9375,918.6875 1108.6875,918.1406 C1109.2656,917.7344 1109.5938,917.2813 1109.5938,916.8906 C1109.5938,916.4375 1109.2031,916.0469 1108.7344,916.0469 C1108.5156,916.0469 1108.3125,916.125 1108.125,916.3125 C1107.6719,916.7969 1107.6719,916.7969 1107.4844,916.8906 C1107.0625,917.1563 1106.375,917.2813 1105.6094,917.2813 C1103.5625,917.2813 1102.2656,916.1875 1102.2656,914.4844 L1102.2656,913.3906 C1102.2656,911.6094 1103.5156,910.2969 1105.25,910.2969 C1105.8281,910.2969 1106.4375,910.4531 1106.9063,910.7031 C1107.3906,910.9844 1107.5625,911.2031 1107.6563,911.6094 C1107.7188,912.0156 1107.75,912.1406 1107.8906,912.2656 C1108.0313,912.4063 1108.2656,912.5156 1108.4844,912.5156 C1108.75,912.5156 1109.0156,912.375 1109.1875,912.1563 C1109.2969,912 1109.3281,911.8125 1109.3281,911.3906 L1109.3281,909.9688 C1109.3281,909.5313 1109.3125,909.4063 1109.2188,909.25 C1109.0625,908.9844 1108.7813,908.8438 1108.4844,908.8438 C1108.1875,908.8438 1107.9844,908.9375 1107.7656,909.25 L1107.5938,909.1719 Z " fill="#000000"/><text fill="#000000" font-family="sans-serif" font-size="14" lengthAdjust="spacing" textLength="155" x="1125.75" y="918.3467">ManufacturingService</text><line style="stroke:#181818;stroke-width:0.5;" x1="969" x2="1405" y1="929.5" y2="929.5"/><ellipse cx="979" cy="943.1484" fill="none" rx="3" ry="3" style="stroke:#038048;stroke-width:1.0;"/><text fill="#000000" font-family="sans-serif" font-size="14" lengthAdjust="spacing" textLength="255" x="988" y="946.4951">service_id: int [unique, primary key]</text><ellipse cx="979" cy="959.4453" fill="none" rx="3" ry="3" style="stroke:#038048;stroke-width:1.0;"/><text fill="#000000" font-family="sans-serif" font-size="14" lengthAdjust="spacing" textLength="405" x="988" y="962.792">resource_id: int [ref: &gt; DistributedResource.resource_id]</text><ellipse cx="979" cy="975.7422" fill="none" rx="3" ry="3" style="stroke:#038048;stroke-width:1.0;"/><text fill="#000000" font-family="sans-serif" font-size="14" lengthAdjust="spacing" textLength="85" x="988" y="979.0889">type: string</text><ellipse cx="979" cy="992.0391" fill="none" rx="3" ry="3" style="stroke:#038048;stroke-width:1.0;"/><text fill="#000000" font-family="sans-serif" font-size="14" lengthAdjust="spacing" textLength="133" x="988" y="995.3857">description: string</text><ellipse cx="979" cy="1008.3359" fill="none" rx="3" ry="3" style="stroke:#038048;stroke-width:1.0;"/><text fill="#000000" font-family="sans-serif" font-size="14" lengthAdjust="spacing" textLength="412" x="988" y="1011.6826">source_id: int [ref: &gt; DatabaseSourceMetadata.source_id]</text><line style="stroke:#181818;stroke-width:0.5;" x1="969" x2="1405" y1="1018.9844" y2="1018.9844"/></g><!--class ManufacturingSkill--><g id="elem_ManufacturingSkill"><rect codeLine="83" fill="#F1F1F1" height="145.7813" id="ManufacturingSkill" rx="2.5" ry="2.5" style="stroke:#181818;stroke-width:0.5;" width="438" x="1441" y="889"/><ellipse cx="1589.75" cy="905" fill="#ADD1B2" rx="11" ry="11" style="stroke:#181818;stroke-width:1.0;"/><path d="M1592.0938,900.6719 C1591.1563,900.2344 1590.5625,900.0938 1589.6875,900.0938 C1587.0625,900.0938 1585.0625,902.1719 1585.0625,904.8906 L1585.0625,906.0156 C1585.0625,908.5938 1587.1719,910.4844 1590.0625,910.4844 C1591.2813,910.4844 1592.4375,910.1875 1593.1875,909.6406 C1593.7656,909.2344 1594.0938,908.7813 1594.0938,908.3906 C1594.0938,907.9375 1593.7031,907.5469 1593.2344,907.5469 C1593.0156,907.5469 1592.8125,907.625 1592.625,907.8125 C1592.1719,908.2969 1592.1719,908.2969 1591.9844,908.3906 C1591.5625,908.6563 1590.875,908.7813 1590.1094,908.7813 C1588.0625,908.7813 1586.7656,907.6875 1586.7656,905.9844 L1586.7656,904.8906 C1586.7656,903.1094 1588.0156,901.7969 1589.75,901.7969 C1590.3281,901.7969 1590.9375,901.9531 1591.4063,902.2031 C1591.8906,902.4844 1592.0625,902.7031 1592.1563,903.1094 C1592.2188,903.5156 1592.25,903.6406 1592.3906,903.7656 C1592.5313,903.9063 1592.7656,904.0156 1592.9844,904.0156 C1593.25,904.0156 1593.5156,903.875 1593.6875,903.6563 C1593.7969,903.5 1593.8281,903.3125 1593.8281,902.8906 L1593.8281,901.4688 C1593.8281,901.0313 1593.8125,900.9063 1593.7188,900.75 C1593.5625,900.4844 1593.2813,900.3438 1592.9844,900.3438 C1592.6875,900.3438 1592.4844,900.4375 1592.2656,900.75 L1592.0938,900.6719 Z " fill="#000000"/><text fill="#000000" font-family="sans-serif" font-size="14" lengthAdjust="spacing" textLength="132" x="1610.25" y="909.8467">ManufacturingSkill</text><line style="stroke:#181818;stroke-width:0.5;" x1="1442" x2="1878" y1="921" y2="921"/><ellipse cx="1452" cy="934.6484" fill="none" rx="3" ry="3" style="stroke:#038048;stroke-width:1.0;"/><text fill="#000000" font-family="sans-serif" font-size="14" lengthAdjust="spacing" textLength="232" x="1461" y="937.9951">skill_id: int [unique, primary key]</text><ellipse cx="1452" cy="950.9453" fill="none" rx="3" ry="3" style="stroke:#038048;stroke-width:1.0;"/><text fill="#000000" font-family="sans-serif" font-size="14" lengthAdjust="spacing" textLength="405" x="1461" y="954.292">resource_id: int [ref: &gt; DistributedResource.resource_id]</text><ellipse cx="1452" cy="967.2422" fill="none" rx="3" ry="3" style="stroke:#038048;stroke-width:1.0;"/><text fill="#000000" font-family="sans-serif" font-size="14" lengthAdjust="spacing" textLength="91" x="1461" y="970.5889">name: string</text><ellipse cx="1452" cy="983.5391" fill="none" rx="3" ry="3" style="stroke:#038048;stroke-width:1.0;"/><text fill="#000000" font-family="sans-serif" font-size="14" lengthAdjust="spacing" textLength="74" x="1461" y="986.8857">bio: string</text><ellipse cx="1452" cy="999.8359" fill="none" rx="3" ry="3" style="stroke:#038048;stroke-width:1.0;"/><text fill="#000000" font-family="sans-serif" font-size="14" lengthAdjust="spacing" textLength="86" x="1461" y="1003.1826">skills: string</text><ellipse cx="1452" cy="1016.1328" fill="none" rx="3" ry="3" style="stroke:#038048;stroke-width:1.0;"/><text fill="#000000" font-family="sans-serif" font-size="14" lengthAdjust="spacing" textLength="412" x="1461" y="1019.4795">source_id: int [ref: &gt; DatabaseSourceMetadata.source_id]</text><line style="stroke:#181818;stroke-width:0.5;" x1="1442" x2="1878" y1="1026.7813" y2="1026.7813"/></g><!--class FindableProject--><g id="elem_FindableProject"><rect codeLine="92" fill="#F1F1F1" height="129.4844" id="FindableProject" rx="2.5" ry="2.5" style="stroke:#181818;stroke-width:0.5;" width="438" x="1914" y="897.5"/><ellipse cx="2072.25" cy="913.5" fill="#ADD1B2" rx="11" ry="11" style="stroke:#181818;stroke-width:1.0;"/><path d="M2074.5938,909.1719 C2073.6563,908.7344 2073.0625,908.5938 2072.1875,908.5938 C2069.5625,908.5938 2067.5625,910.6719 2067.5625,913.3906 L2067.5625,914.5156 C2067.5625,917.0938 2069.6719,918.9844 2072.5625,918.9844 C2073.7813,918.9844 2074.9375,918.6875 2075.6875,918.1406 C2076.2656,917.7344 2076.5938,917.2813 2076.5938,916.8906 C2076.5938,916.4375 2076.2031,916.0469 2075.7344,916.0469 C2075.5156,916.0469 2075.3125,916.125 2075.125,916.3125 C2074.6719,916.7969 2074.6719,916.7969 2074.4844,916.8906 C2074.0625,917.1563 2073.375,917.2813 2072.6094,917.2813 C2070.5625,917.2813 2069.2656,916.1875 2069.2656,914.4844 L2069.2656,913.3906 C2069.2656,911.6094 2070.5156,910.2969 2072.25,910.2969 C2072.8281,910.2969 2073.4375,910.4531 2073.9063,910.7031 C2074.3906,910.9844 2074.5625,911.2031 2074.6563,911.6094 C2074.7188,912.0156 2074.75,912.1406 2074.8906,912.2656 C2075.0313,912.4063 2075.2656,912.5156 2075.4844,912.5156 C2075.75,912.5156 2076.0156,912.375 2076.1875,912.1563 C2076.2969,912 2076.3281,911.8125 2076.3281,911.3906 L2076.3281,909.9688 C2076.3281,909.5313 2076.3125,909.4063 2076.2188,909.25 C2076.0625,908.9844 2075.7813,908.8438 2075.4844,908.8438 C2075.1875,908.8438 2074.9844,908.9375 2074.7656,909.25 L2074.5938,909.1719 Z " fill="#000000"/><text fill="#000000" font-family="sans-serif" font-size="14" lengthAdjust="spacing" textLength="113" x="2092.75" y="918.3467">FindableProject</text><line style="stroke:#181818;stroke-width:0.5;" x1="1915" x2="2351" y1="929.5" y2="929.5"/><ellipse cx="1925" cy="943.1484" fill="none" rx="3" ry="3" style="stroke:#038048;stroke-width:1.0;"/><text fill="#000000" font-family="sans-serif" font-size="14" lengthAdjust="spacing" textLength="257" x="1934" y="946.4951">project_id: int [unique, primary key]</text><ellipse cx="1925" cy="959.4453" fill="none" rx="3" ry="3" style="stroke:#038048;stroke-width:1.0;"/><text fill="#000000" font-family="sans-serif" font-size="14" lengthAdjust="spacing" textLength="405" x="1934" y="962.792">resource_id: int [ref: &gt; DistributedResource.resource_id]</text><ellipse cx="1925" cy="975.7422" fill="none" rx="3" ry="3" style="stroke:#038048;stroke-width:1.0;"/><text fill="#000000" font-family="sans-serif" font-size="14" lengthAdjust="spacing" textLength="91" x="1934" y="979.0889">name: string</text><ellipse cx="1925" cy="992.0391" fill="none" rx="3" ry="3" style="stroke:#038048;stroke-width:1.0;"/><text fill="#000000" font-family="sans-serif" font-size="14" lengthAdjust="spacing" textLength="133" x="1934" y="995.3857">description: string</text><ellipse cx="1925" cy="1008.3359" fill="none" rx="3" ry="3" style="stroke:#038048;stroke-width:1.0;"/><text fill="#000000" font-family="sans-serif" font-size="14" lengthAdjust="spacing" textLength="412" x="1934" y="1011.6826">source_id: int [ref: &gt; DatabaseSourceMetadata.source_id]</text><line style="stroke:#181818;stroke-width:0.5;" x1="1915" x2="2351" y1="1018.9844" y2="1018.9844"/></g><!--link Address to Contact--><g id="link_Address_Contact"><path codeLine="100" d="M1436,236.045 C1436,285.669 1436,344.374 1436,386.386 " fill="none" id="Address-Contact" style="stroke:#181818;stroke-width:1.0;"/><text fill="#000000" font-family="sans-serif" font-size="13" lengthAdjust="spacing" textLength="69" x="1437" y="279.0669">address_id</text></g><!--link Address to DistributedResource--><g id="link_Address_DistributedResource"><path codeLine="101" d="M1293.21,216.266 C1258.36,242.187 1225.3,274.513 1205,313 C1175.2,369.504 1178.38,548.302 1182.91,649.799 " fill="none" id="Address-DistributedResource" style="stroke:#181818;stroke-width:1.0;"/><text fill="#000000" font-family="sans-serif" font-size="13" lengthAdjust="spacing" textLength="69" x="1206" y="447.5669">address_id</text></g><!--link Contact to DistributedResource--><g id="link_Contact_DistributedResource"><path codeLine="102" d="M1386.21,499.589 C1347.54,542.767 1293.6,602.986 1251.6,649.875 " fill="none" id="Contact-DistributedResource" style="stroke:#181818;stroke-width:1.0;"/><text fill="#000000" font-family="sans-serif" font-size="13" lengthAdjust="spacing" textLength="66" x="1290" y="616.0669">contact_id</text></g><!--link DatabaseSourceMetadata to DistributedResource--><g id="link_DatabaseSourceMetadata_DistributedResource"><path codeLine="103" d="M1075.16,573.234 C1094.99,599.607 1115.17,626.452 1132.83,649.945 " fill="none" id="DatabaseSourceMetadata-DistributedResource" style="stroke:#181818;stroke-width:1.0;"/><text fill="#000000" font-family="sans-serif" font-size="13" lengthAdjust="spacing" textLength="61" x="1108" y="616.0669">source_id</text></g><!--link Contact to DataVerificator--><g id="link_Contact_DataVerificator"><path codeLine="104" d="M1474.19,499.589 C1505.65,545.382 1550.28,610.341 1583.19,658.239 " fill="none" id="Contact-DataVerificator" style="stroke:#181818;stroke-width:1.0;"/><text fill="#000000" font-family="sans-serif" font-size="13" lengthAdjust="spacing" textLength="66" x="1555" y="616.0669">contact_id</text></g><!--link Address to DataVerificator--><g id="link_Address_DataVerificator"><path codeLine="105" d="M1545.58,236.463 C1565.75,259.568 1584.39,285.555 1597,313 C1648.87,425.895 1643.96,574.918 1635.59,658.361 " fill="none" id="Address-DataVerificator" style="stroke:#181818;stroke-width:1.0;"/><text fill="#000000" font-family="sans-serif" font-size="13" lengthAdjust="spacing" textLength="69" x="1641" y="447.5669">address_id</text></g><!--link DistributedResource to ManufacturingFacility--><g id="link_DistributedResource_ManufacturingFacility"><path codeLine="106" d="M967.79,761.206 C826.391,787.358 639.262,826.01 477,873 C471.435,874.612 465.813,876.292 460.157,878.03 " fill="none" id="DistributedResource-ManufacturingFacility" style="stroke:#181818;stroke-width:1.0;"/><text fill="#000000" font-family="sans-serif" font-size="13" lengthAdjust="spacing" textLength="74" x="651" y="839.0669">resource_id</text></g><!--link DistributedResource to ManufacturingEquipment--><g id="link_DistributedResource_ManufacturingEquipment"><path codeLine="107" d="M1043.16,796.073 C989.614,822.902 928.544,853.501 873.666,880.998 " fill="none" id="DistributedResource-ManufacturingEquipment" style="stroke:#181818;stroke-width:1.0;"/><text fill="#000000" font-family="sans-serif" font-size="13" lengthAdjust="spacing" textLength="74" x="979" y="839.0669">resource_id</text></g><!--link DistributedResource to ManufacturingService--><g id="link_DistributedResource_ManufacturingService"><path codeLine="108" d="M1187,796.073 C1187,828.349 1187,866.083 1187,897.306 " fill="none" id="DistributedResource-ManufacturingService" style="stroke:#181818;stroke-width:1.0;"/><text fill="#000000" font-family="sans-serif" font-size="13" lengthAdjust="spacing" textLength="74" x="1188" y="839.0669">resource_id</text></g><!--link DistributedResource to ManufacturingSkill--><g id="link_DistributedResource_ManufacturingSkill"><path codeLine="109" d="M1330.84,796.073 C1389.55,825.489 1457.31,859.439 1516.03,888.861 " fill="none" id="DistributedResource-ManufacturingSkill" style="stroke:#181818;stroke-width:1.0;"/><text fill="#000000" font-family="sans-serif" font-size="13" lengthAdjust="spacing" textLength="74" x="1424" y="839.0669">resource_id</text></g><!--link DistributedResource to FindableProject--><g id="link_DistributedResource_FindableProject"><path codeLine="110" d="M1406.18,786.829 C1419.28,790.067 1432.29,793.153 1445,796 C1643.85,840.559 1700.21,820.056 1897,873 C1922.55,879.873 1949.2,888.413 1975.01,897.447 " fill="none" id="DistributedResource-FindableProject" style="stroke:#181818;stroke-width:1.0;"/><text fill="#000000" font-family="sans-serif" font-size="13" lengthAdjust="spacing" textLength="74" x="1759" y="839.0669">resource_id</text></g><!--SRC=[pLRRRjim37tlLmXztP8FoCE0OLs1OIWsBC3sC0G5BJCk5rboTKaG5FttIOalYcoZITgrUqaWYXHvZWvfLS1NK22x_5QXd7oLQZFvTOSQsHT9bi3I6jaL6QifSnPpzWEDSfgZOLTWWStv7PPmoHuk6EC2Z64VyroZ_myMnjunsAzlAPynafRzTfBk7RvdbQOIz9QjSBkeVNqQH3iB_oIBsYXTcQ5EZ49n46ItYLbZGKecnaePorMEk_nOeAxjN3bfTNg4y9Yj2zvBeS2s-MIHc1ylMioVbBJ0ROkPxzV7OLQSG2H5U4ufjMqmCsGniaOLXCl8mE1yTpatQ24Fr_FG9Wdce-gHK6AIEKV3DLMsJsrzhjrMEBpZT0f344TfKlSrQjC_dck4aFNMW_4HuTTIYVMkgu9XUCy3sYYTcrGABXDaxdfo2XUsKxZg2GrauNo3ZD3UTKRJ62td6azWlTSb6fSpzg7ffcctlnZJM1rHQt7QxIywZcb97FRtc2abqWsbUyS5OVtizgU7leiHVKN1VLLEM-z5NyHHhfR9mVfUIiAdytZQNKNuRa2wfJ_BXVJNm2bCi1RbiZOS1R4lheRolYAdaVDP50sqDuVAbnlchqyUsR80WT0CJuDdwkE0ly_tZgeIPJTriR6y2eEP1fadC4l_bH5Fa_VaF7r9dkQernID9RDVlmf7RuvzHK9qoCFghReh8vNY3UNycqQv9fb39l2xLdymUfTK-_N_Ds6U2xjvT4ucpToUHMFwq66W_iIvUSwDENUV1Eyyyl8QYsrhJ_8SVlgI777rgUD1vKFl4Hyq-E6PnLTyP6mxTCy9hYVHMQ6XLuuCJCH_6FNu5m00]--></g></svg>